# 3ds Max Wavefront OBJ Exporter v0.97b - (c)2007 guruware
# File Created: 15.09.2015 18:16:57

#
# object Box001
#

v  -10.0000 0.0000 0.1000
v  0.0000 0.0000 0.1000
v  0.0000 0.0000 -0.1000
v  -10.0000 0.0000 -0.1000
v  10.0000 0.0000 0.1000
v  10.0000 0.0000 -0.1000
v  -10.0000 -50.0000 0.1000
v  -10.0000 -50.0000 -0.1000
v  0.0000 -40.0000 -0.1000
v  0.0000 -40.0000 0.1000
v  10.0000 -50.0000 -0.1000
v  10.0000 -50.0000 0.1000
# 12 vertices

vn 0.0000 1.0000 -0.0000
vn 0.7071 -0.7071 -0.0000
vn 0.0000 -1.0000 -0.0000
vn -0.0000 -1.0000 -0.0000
vn -0.7071 -0.7071 -0.0000
vn 0.0000 0.0000 1.0000
vn 1.0000 0.0000 -0.0000
vn 0.0000 0.0000 -1.0000
vn -1.0000 0.0000 -0.0000
# 9 vertex normals

vt 0.0000 -0.0000 0.0000
vt 0.0000 0.5000 0.0000
vt 0.0000 1.0000 0.0000
vt 1.0000 0.0000 0.0000
vt 0.8000 0.5000 0.0000
vt 1.0000 1.0000 0.0000
# 6 texture coords

g Box001
f 1/1/1 2/2/1 3/2/1 
f 3/2/1 4/1/1 1/1/1 
f 2/2/1 5/3/1 6/3/1 
f 6/3/1 3/2/1 2/2/1 
f 7/4/2 8/4/2 9/5/3 
f 9/5/3 10/5/4 7/4/2 
f 10/5/4 9/5/3 11/6/5 
f 11/6/5 12/6/5 10/5/4 
f 1/1/6 7/4/6 10/5/6 
f 10/5/6 2/2/6 1/1/6 
f 2/2/6 10/5/6 12/6/6 
f 12/6/6 5/3/6 2/2/6 
f 5/3/7 12/6/7 11/6/7 
f 11/6/7 6/3/7 5/3/7 
f 6/3/8 11/6/8 9/5/8 
f 9/5/8 3/2/8 6/3/8 
f 3/2/8 9/5/8 8/4/8 
f 8/4/8 4/1/8 3/2/8 
f 4/1/9 8/4/9 7/4/9 
f 7/4/9 1/1/9 4/1/9 
# 20 faces

