# 3ds Max Wavefront OBJ Exporter v0.97b - (c)2007 guruware
# File Created: 16.09.2015 22:12:32

#
# object Torus001
#

v  -26.1630 0.0000 -26.1629
v  24.0416 1.7321 -24.0416
v  26.1630 0.0000 -26.1630
v  -24.0416 1.7321 -24.0416
v  24.0416 -1.7321 -24.0416
v  -24.0416 -1.7321 -24.0416
v  24.0416 1.7321 24.0416
v  26.1629 0.0000 26.1630
v  24.0416 -1.7321 24.0416
v  -24.0416 1.7321 24.0416
v  -26.1630 0.0000 26.1629
v  -24.0416 -1.7321 24.0416
# 12 vertices

vn -0.7071 0.0000 -0.7071
vn -0.0464 0.9978 0.0464
vn 0.7071 -0.0000 -0.7071
vn 0.0464 0.9978 0.0464
vn -0.0464 -0.9978 0.0464
vn 0.0464 -0.9978 0.0464
vn -0.0464 0.9978 -0.0464
vn 0.7071 0.0000 0.7071
vn -0.0464 -0.9978 -0.0464
vn 0.0464 0.9978 -0.0464
vn -0.7071 -0.0000 0.7071
vn 0.0464 -0.9978 -0.0464
# 12 vertex normals

vt 0.0000 0.0000 0.0000
vt 0.3333 0.2500 0.0000
vt 0.0000 0.2500 0.0000
vt 0.3333 0.0000 0.0000
vt 0.6667 0.2500 0.0000
vt 0.6667 0.0000 0.0000
vt 1.0000 0.2500 0.0000
vt 1.0000 0.0000 0.0000
vt 0.3333 0.5000 0.0000
vt 0.0000 0.5000 0.0000
vt 0.6667 0.5000 0.0000
vt 1.0000 0.5000 0.0000
vt 0.3333 0.7500 0.0000
vt 0.0000 0.7500 0.0000
vt 0.6667 0.7500 0.0000
vt 1.0000 0.7500 0.0000
vt 0.3333 1.0000 0.0000
vt 0.0000 1.0000 0.0000
vt 0.6667 1.0000 0.0000
vt 1.0000 1.0000 0.0000
# 20 texture coords

g Torus001
f 1/1/1 2/2/2 3/3/3 
f 1/1/1 4/4/4 2/2/2 
f 4/4/4 5/5/5 2/2/2 
f 4/4/4 6/6/6 5/5/5 
f 6/6/6 3/7/3 5/5/5 
f 6/6/6 1/8/1 3/7/3 
f 3/3/3 7/9/7 8/10/8 
f 3/3/3 2/2/2 7/9/7 
f 2/2/2 9/11/9 7/9/7 
f 2/2/2 5/5/5 9/11/9 
f 5/5/5 8/12/8 9/11/9 
f 5/5/5 3/7/3 8/12/8 
f 8/10/8 10/13/10 11/14/11 
f 8/10/8 7/9/7 10/13/10 
f 7/9/7 12/15/12 10/13/10 
f 7/9/7 9/11/9 12/15/12 
f 9/11/9 11/16/11 12/15/12 
f 9/11/9 8/12/8 11/16/11 
f 11/14/11 4/17/4 1/18/1 
f 11/14/11 10/13/10 4/17/4 
f 10/13/10 6/19/6 4/17/4 
f 10/13/10 12/15/12 6/19/6 
f 12/15/12 1/20/1 6/19/6 
f 12/15/12 11/16/11 1/20/1 
# 24 faces

